# xmcd
#
# Track frame offsets: 
#        150
#        21316
#        42186
#        66562
#        90020
#        105084
#        121939
#        141614
#        159927
#        183990
#
# Disc length: 2695 seconds
#
# Revision: 0
# Processed by: cddbd v1.5.2PL0 Copyright (c) Steve Scherf et al.
# Submitted via: ExactAudioCopy v0.99pb4
#
DISCID=7a0a850a
DTITLE=BigFat Mama - BigFat Mama
DYEAR=1900
DGENRE=Soul, psychodelic blues
TTITLE0=Baw mnie
TTITLE1=Funkowa pieczen
TTITLE2=Cosmic slop
TTITLE3=Keep the cool
TTITLE4=I wanna folk with you
TTITLE5=Pussy
TTITLE6=Baw mnie
TTITLE7=Krem do paznokci
TTITLE8=Pussy
TTITLE9=Jednego serca
EXTD=
EXTT0=
EXTT1=
EXTT2=
EXTT3=
EXTT4=
EXTT5=
EXTT6=
EXTT7=
EXTT8=
EXTT9=
PLAYORDER=
